<?xml version="1.0" encoding="UTF-8"?>
<svg version="1.1" xmlns="http://www.w3.org/2000/svg" width="512" height="512">
	<path d="M0 0 C168.96 0 337.92 0 512 0 C512 168.96 512 337.92 512 512 C343.04 512 174.08 512 0 512 C0 343.04 0 174.08 0 0 Z " fill="#F7E9D3" transform="translate(0,0)"/>
	<path d="M0 0 C1.48283418 -0.00935994 1.48283418 -0.00935994 2.9956246 -0.01890898 C6.29978213 -0.03483158 9.60320121 -0.02223711 12.90736389 -0.00964355 C15.27962677 -0.01506501 17.65188627 -0.02218779 20.0241394 -0.03088379 C25.79381957 -0.04722514 31.56326611 -0.04483959 37.33295339 -0.03323323 C42.02381085 -0.02418887 46.71461002 -0.02297922 51.40547371 -0.02732849 C52.40804252 -0.02824789 52.40804252 -0.02824789 53.43086525 -0.02918586 C54.78880268 -0.0304648 56.14674009 -0.03176166 57.50467748 -0.03307623 C70.2304085 -0.04447528 82.95602415 -0.03137942 95.68173624 -0.00987476 C106.59196418 0.00799155 117.50202184 0.00489473 128.4122467 -0.0135498 C141.09179456 -0.03497558 153.77124134 -0.04337239 166.45080477 -0.03110075 C167.80397036 -0.0298266 169.15713597 -0.02856912 170.51030159 -0.02732849 C171.17602566 -0.02671139 171.84174974 -0.02609429 172.52764727 -0.02545848 C177.2102947 -0.02201038 181.89285848 -0.02801856 186.57549858 -0.0372467 C192.88339716 -0.04880934 199.19097451 -0.04077131 205.49883842 -0.01766968 C207.81272346 -0.01238466 210.12663557 -0.01389278 212.4405098 -0.02272034 C215.60157283 -0.03366721 218.76160959 -0.01992141 221.92260742 0 C222.83613934 -0.00892289 223.74967126 -0.01784577 224.69088596 -0.02703905 C231.79614173 0.05968624 236.92610171 1.95100584 242.41542053 6.48059082 C243.02901428 7.17023926 243.64260803 7.8598877 244.27479553 8.57043457 C244.89870178 9.24203613 245.52260803 9.9136377 246.16542053 10.60559082 C253.50262151 22.05840662 252.6002128 34.24531864 252.5582428 47.35388184 C252.56530729 49.67423042 252.57405453 51.99457439 252.58435059 54.31491089 C252.60679165 60.59373228 252.60391751 66.87230098 252.59502912 73.15114713 C252.58990872 78.39978706 252.59722014 83.64837995 252.60450119 88.89701504 C252.62245217 101.98698614 252.61610655 115.07681671 252.59833138 128.16678267 C252.58363009 139.51788097 252.59827452 150.86871466 252.62710155 162.2197789 C252.65653627 173.89775602 252.66694889 185.57560039 252.65791935 197.25361294 C252.65299488 203.80095856 252.65518059 210.34809844 252.67570686 216.89541817 C252.6940821 223.05076566 252.68808196 229.20562165 252.66350746 235.36094284 C252.65850607 237.61594206 252.66197176 239.87097886 252.67465591 242.12594795 C252.69063731 245.21185091 252.67558673 248.29614522 252.65298462 251.38197327 C252.66482035 252.26749628 252.67665608 253.1530193 252.68885046 254.06537634 C252.57069026 262.04313068 249.79237429 268.54726892 244.33729553 274.38293457 C236.76127706 279.24302189 229.77736573 281.10542798 220.84068298 281.00914001 C219.8658978 281.01467441 218.89111262 281.02020881 217.88678849 281.02591091 C214.647206 281.03943498 211.408405 281.02459291 208.1688385 281.00964355 C205.83554255 281.01342967 203.50224884 281.01893211 201.16896057 281.02601624 C194.8509392 281.03994827 188.53319083 281.02881731 182.21518469 281.01230502 C176.26801691 280.99983784 170.32087655 281.00406882 164.37370016 281.00743473 C152.5908496 281.01330379 140.80810615 280.9991781 129.02528381 280.9744873 C117.60467009 280.95055839 106.18419936 280.9434885 94.76356506 280.95397949 C82.3092356 280.96539963 69.85497215 280.96730609 57.40064347 280.9528814 C50.81428194 280.9453466 44.22797748 280.94143891 37.64161301 280.94738579 C31.45108584 280.95216151 25.26075631 280.94202889 19.07026672 280.92043114 C16.79991955 280.91487176 14.52955335 280.91439016 12.25920486 280.919384 C9.15756495 280.92535031 6.05652658 280.91280543 2.9549408 280.89561462 C2.05901903 280.90162467 1.16309726 280.90763471 0.24002635 280.91382688 C-6.55843465 280.84542207 -11.77063826 279.44557926 -17.66270447 275.88293457 C-23.38932716 270.00153829 -25.5448269 264.16813842 -25.54168701 256.0174408 C-25.51588058 254.99207718 -25.49007416 253.96671356 -25.46348572 252.91027832 C-25.45641098 251.83540665 -25.44933624 250.76053497 -25.44204712 249.65309143 C-25.41425627 246.24980452 -25.35154428 242.84821675 -25.28770447 239.44543457 C-25.26260192 237.12579702 -25.2397922 234.80613345 -25.21934509 232.4864502 C-25.16448013 226.82637393 -25.08100852 221.16727568 -24.97520447 215.50793457 C-26.9455365 215.59494629 -26.9455365 215.59494629 -28.95567322 215.68371582 C-30.6913147 215.73062505 -32.4269947 215.77612396 -34.16270447 215.82043457 C-35.45917908 215.88327637 -35.45917908 215.88327637 -36.78184509 215.9473877 C-41.27642492 216.03349076 -43.32489343 215.98475703 -47.04917908 213.25402832 C-48.93241344 210.56894528 -49.60744499 209.45883947 -49.60411072 206.25793457 C-49.60604431 205.48449707 -49.60797791 204.71105957 -49.60997009 203.91418457 C-49.58612244 203.12012207 -49.56227478 202.32605957 -49.53770447 201.50793457 C-49.5486615 200.71387207 -49.55961853 199.91980957 -49.57090759 199.10168457 C-49.52052218 195.07085147 -49.27618573 192.98064133 -47.06504822 189.50793457 C-40.42038313 183.14892798 -37.63468506 186.50793457 -24.97520447 186.50793457 C-24.97520447 172.97793457 -24.97520447 159.44793457 -24.97520447 145.50793457 C-30.91520447 145.50793457 -36.85520447 145.50793457 -42.97520447 145.50793457 C-48.84748757 139.63565146 -49.1914573 139.02187251 -49.28770447 131.25793457 C-49.33121033 130.11131348 -49.33121033 130.11131348 -49.37559509 128.94152832 C-49.42052893 124.93895999 -49.28079091 122.98931198 -47.08067322 119.52355957 C-40.4204767 113.14756438 -37.69027629 116.50793457 -24.97520447 116.50793457 C-24.97520447 103.30793457 -24.97520447 90.10793457 -24.97520447 76.50793457 C-30.58520447 76.50793457 -36.19520447 76.50793457 -41.97520447 76.50793457 C-47.88858354 72.95990713 -47.88858354 72.95990713 -48.97520447 69.50793457 C-49.27598572 66.23059082 -49.27598572 66.23059082 -49.28770447 62.57043457 C-49.30446228 61.36516113 -49.32122009 60.1598877 -49.33848572 58.91809082 C-48.9472557 55.24557682 -48.19984328 53.42028374 -45.97520447 50.50793457 C-41.10554774 47.26149675 -36.46834204 47.46130927 -30.75254822 47.48449707 C-29.67094421 47.48788086 -28.58934021 47.49126465 -27.47496033 47.49475098 C-26.65004089 47.49910156 -25.82512146 47.50345215 -24.97520447 47.50793457 C-24.99091492 46.63580322 -25.00662537 45.76367188 -25.02281189 44.8651123 C-25.07421268 41.60170439 -25.1116854 38.33873225 -25.13999939 35.07507324 C-25.15500323 33.66777723 -25.1754131 32.26052733 -25.20152283 30.85339355 C-25.23828112 28.8201555 -25.25501431 26.78754025 -25.26817322 24.75402832 C-25.28388367 23.5338501 -25.29959412 22.31367187 -25.31578064 21.05651855 C-24.66426968 14.26819471 -21.68324169 9.32297263 -16.97520447 4.50793457 C-11.22271075 0.46205811 -6.93582684 -0.06758039 0 0 Z " fill="#3B575D" transform="translate(147.97520446777344,49.4920654296875)"/>
	<path d="M0 0 C1.61698288 -0.0129007 1.61698288 -0.0129007 3.26663208 -0.02606201 C4.44952316 -0.03032196 5.63241425 -0.03458191 6.85115051 -0.03897095 C8.09694885 -0.04714844 9.34274719 -0.05532593 10.626297 -0.06375122 C14.75959451 -0.0886155 18.89285544 -0.10527795 23.02619934 -0.11953735 C24.45091063 -0.12489855 25.87562186 -0.13027606 27.30033302 -0.13566971 C33.22893363 -0.15729606 39.15753155 -0.17603082 45.08616161 -0.1872921 C53.57213515 -0.20351879 62.05764992 -0.23666759 70.54345053 -0.29369295 C76.51556115 -0.33245214 82.48754937 -0.35193193 88.45978242 -0.35721266 C92.02383431 -0.36085857 95.5873966 -0.37279708 99.15131187 -0.4053154 C103.13212252 -0.44111688 107.1123622 -0.43700991 111.09333801 -0.42959595 C112.26610794 -0.44600128 113.43887787 -0.46240662 114.64718628 -0.47930908 C121.59459595 -0.42639035 126.62763293 0.26219268 131.79573059 5.15390015 C137.51496802 11.23403702 137.50338097 17.61658135 137.41096497 25.62509155 C137.41651398 26.85532547 137.42206299 28.08555939 137.42778015 29.35307312 C137.43752758 32.70677589 137.42504742 36.05892098 137.40149498 39.41245699 C137.38129371 42.9316851 137.38727018 46.45088194 137.38960266 49.97015381 C137.3895492 55.87626696 137.36985747 61.78205896 137.33772278 67.68807983 C137.30080057 74.50695726 137.29205307 81.3254149 137.29902029 88.14437926 C137.30533375 94.71932022 137.29455767 101.29411796 137.27505493 107.86903 C137.26690088 110.66076073 137.26416767 113.45241806 137.26574707 116.2441597 C137.26679232 120.14342765 137.24257305 124.04231801 137.21565247 127.9414978 C137.21858307 129.09490158 137.22151367 130.24830536 137.22453308 131.43666077 C137.15418206 138.03976243 136.69352123 142.79705356 132.21760559 147.98202515 C131.66588684 148.4512439 131.11416809 148.92046265 130.54573059 149.40390015 C130.00432434 149.8834314 129.46291809 150.36296265 128.90510559 150.85702515 C122.42297116 154.84233743 115.28527604 154.44508073 107.92878723 154.42855835 C106.16162605 154.43622475 106.16162605 154.43622475 104.35876465 154.44404602 C101.14381995 154.45552638 97.92903598 154.45802176 94.71407628 154.45548272 C92.0228591 154.45440885 89.3316654 154.45930693 86.64045328 154.46408814 C80.28797883 154.47516154 73.93556352 154.47563284 67.58308411 154.46957397 C61.04547275 154.46353412 54.50807661 154.47585032 47.97050196 154.49714404 C42.342243 154.51479703 36.71405233 154.52075563 31.08576673 154.5175063 C27.7309235 154.51569931 24.37635612 154.51959723 21.0215168 154.53222084 C17.27819938 154.54457863 13.53537816 154.53779697 9.79206848 154.5262146 C8.6910379 154.53385834 7.59000732 154.54150208 6.45561218 154.54937744 C-1.05919576 154.4980724 -6.54006906 153.43384703 -13.01676941 149.40390015 C-19.09097441 143.15614643 -18.64017273 135.92808703 -18.60832214 127.70443726 C-18.61518539 126.46459579 -18.62204865 125.22475433 -18.62911987 123.94734192 C-18.64423986 120.56297723 -18.64589497 117.1791654 -18.64017749 113.79480815 C-18.63707802 110.96421475 -18.64318622 108.13367078 -18.64921623 105.30308443 C-18.66323895 98.62465204 -18.66171797 91.94634765 -18.65031433 85.26791382 C-18.63882452 78.38710527 -18.65292806 71.50668609 -18.67971081 64.62592882 C-18.70188279 58.70724371 -18.70850216 52.78868071 -18.70263439 46.86995703 C-18.69926845 43.33967698 -18.70165589 39.80964674 -18.71888542 36.27940178 C-18.73725597 32.34410245 -18.72315198 28.40928091 -18.70597839 24.47396851 C-18.71564636 23.30964294 -18.72531433 22.14531738 -18.73527527 20.94570923 C-18.66729193 13.5132469 -17.82366579 9.87948909 -12.60661316 4.5093689 C-8.27795745 1.05798741 -5.458984 0.03242509 0 0 Z " fill="#F0D9B8" transform="translate(221.2042694091797,107.84609985351563)"/>
	<path d="M0 0 C0 89.1 0 178.2 0 270 C-24 270 -24 270 -32 265 C-32.82951172 264.51660156 -33.65902344 264.03320312 -34.51367188 263.53515625 C-37.72398876 261.11699548 -39.65578776 258.8698984 -40.40087891 254.82226562 C-41.00451677 248.21973411 -40.72639021 241.61550625 -40.5 235 C-40.45983595 232.96491351 -40.42334032 230.92975111 -40.390625 228.89453125 C-40.30282617 223.9278033 -40.16498366 218.96473903 -40 214 C-41.97033203 214.08701172 -41.97033203 214.08701172 -43.98046875 214.17578125 C-45.71611023 214.22269048 -47.45179023 214.26818939 -49.1875 214.3125 C-50.48397461 214.3753418 -50.48397461 214.3753418 -51.80664062 214.43945312 C-56.30122045 214.52555619 -58.34968896 214.47682245 -62.07397461 211.74609375 C-63.95720897 209.06101071 -64.63224053 207.9509049 -64.62890625 204.75 C-64.63083984 203.9765625 -64.63277344 203.203125 -64.63476562 202.40625 C-64.61091797 201.6121875 -64.58707031 200.818125 -64.5625 200 C-64.57345703 199.2059375 -64.58441406 198.411875 -64.59570312 197.59375 C-64.54531771 193.5629169 -64.30098126 191.47270676 -62.08984375 188 C-55.44517866 181.64099341 -52.65948059 185 -40 185 C-40 171.47 -40 157.94 -40 144 C-45.94 144 -51.88 144 -58 144 C-63.87228311 138.12771689 -64.21625284 137.51393794 -64.3125 129.75 C-64.35600586 128.60337891 -64.35600586 128.60337891 -64.40039062 127.43359375 C-64.44532447 123.43102542 -64.30558645 121.48137741 -62.10546875 118.015625 C-55.44527223 111.63962981 -52.71507182 115 -40 115 C-40 101.8 -40 88.6 -40 75 C-45.61 75 -51.22 75 -57 75 C-62.91337907 71.45197256 -62.91337907 71.45197256 -64 68 C-64.30078125 64.72265625 -64.30078125 64.72265625 -64.3125 61.0625 C-64.32925781 59.85722656 -64.34601563 58.65195313 -64.36328125 57.41015625 C-63.97205124 53.73764225 -63.22463881 51.91234917 -61 49 C-56.13034328 45.75356218 -51.49313757 45.9533747 -45.77734375 45.9765625 C-44.69573975 45.97994629 -43.61413574 45.98333008 -42.49975586 45.98681641 C-41.67483643 45.99116699 -40.84991699 45.99551758 -40 46 C-40.01571045 45.12786865 -40.0314209 44.2557373 -40.04760742 43.35717773 C-40.09900821 40.09376982 -40.13648093 36.83079768 -40.16479492 33.56713867 C-40.17979877 32.15984266 -40.20020863 30.75259276 -40.22631836 29.34545898 C-40.26307665 27.31222093 -40.27980984 25.27960568 -40.29296875 23.24609375 C-40.3086792 22.02591553 -40.32438965 20.8057373 -40.34057617 19.54858398 C-39.68906522 12.76026014 -36.70803722 7.81503806 -32 3 C-25 -1 -25 -1 0 0 Z " fill="#3A575D" transform="translate(163,51)"/>
	<path d="M0 0 C78.21 0 156.42 0 237 0 C237 0.33 237 0.66 237 1 C169.68 1 102.36 1 33 1 C33 90.1 33 179.2 33 271 C66.165 270.896875 99.33 270.79375 133.5 270.6875 C143.97298828 270.66260498 154.44597656 270.63770996 165.23632812 270.61206055 C174.6220176 270.57549743 174.6220176 270.57549743 184.00769043 270.5349884 C188.18901697 270.51704744 192.37027359 270.5074447 196.55163574 270.50288391 C201.88713988 270.49679114 207.22241199 270.47644917 212.55782986 270.44583857 C214.51473083 270.43702857 216.47166218 270.43320228 218.42858219 270.43496072 C221.07574683 270.43661872 223.7221963 270.41991641 226.3692627 270.39872742 C227.13171043 270.40357556 227.89415817 270.40842371 228.67971039 270.41341877 C236.02784499 270.31687449 242.67340885 268.32659115 248 263 C251.40184268 257.69237623 251.42282126 253.18046289 251.3742218 247.0868988 C251.37819621 246.09299686 251.38217061 245.09909492 251.38626546 244.07507473 C251.39588435 240.74708824 251.38407254 237.41952726 251.37231445 234.09155273 C251.37474253 231.70472047 251.378462 229.31788923 251.38337708 226.93106079 C251.39180983 221.12283984 251.38627393 215.31475551 251.37411413 209.50654369 C251.36047994 202.74163105 251.36213322 195.97674791 251.36424746 189.21182502 C251.36743588 177.14159806 251.35577765 165.07143015 251.33618164 153.0012207 C251.31717389 141.29026491 251.31009538 129.57937832 251.31567383 117.8684082 C251.32173195 105.11273735 251.32155427 92.3570969 251.310188 79.60142857 C251.30898071 78.24127996 251.30777473 76.88113135 251.30657005 75.52098274 C251.30596651 74.85177743 251.30536298 74.18257213 251.30474115 73.49308787 C251.30086251 68.77801107 251.3012554 64.06294559 251.3031559 59.34786797 C251.30503716 53.00231852 251.29694725 46.65685805 251.2810955 40.31132889 C251.27684694 37.98005733 251.27600593 35.64877675 251.27878571 33.31750298 C251.28199989 30.1402763 251.27294473 26.96331676 251.26069641 23.78611755 C251.26447573 22.85927404 251.26825506 21.93243053 251.27214891 20.97750086 C251.24134409 16.47355407 250.96071246 13.13759559 249 9 C249 8.01 249 7.02 249 6 C260.54989104 17.81238856 259.58322623 31.29839687 259.53344727 46.84594727 C259.54051176 49.16629585 259.549259 51.48663982 259.55955505 53.80697632 C259.58199611 60.08579771 259.57912198 66.36436641 259.57023358 72.64321256 C259.56511319 77.89185249 259.57242461 83.14044538 259.57970566 88.38908046 C259.59765664 101.47905157 259.59131102 114.56888214 259.57353585 127.6588481 C259.55883455 139.0099464 259.57347899 150.36078009 259.60230602 161.71184433 C259.63174074 173.38982145 259.64215336 185.06766582 259.63312382 196.74567837 C259.62819935 203.29302399 259.63038506 209.84016387 259.65091133 216.3874836 C259.66928656 222.54283109 259.66328643 228.69768708 259.63871193 234.85300827 C259.63371054 237.10800749 259.63717623 239.36304429 259.64986038 241.61801338 C259.66584178 244.70391634 259.65079119 247.78821065 259.62818909 250.8740387 C259.64002482 251.75956171 259.65186054 252.64508473 259.66405493 253.55744177 C259.54589473 261.53519611 256.76757876 268.03933435 251.3125 273.875 C243.73648153 278.73508732 236.7525702 280.59749341 227.81588745 280.50120544 C226.84110227 280.50673984 225.86631708 280.51227424 224.86199296 280.51797634 C221.62241047 280.53150041 218.38360947 280.51665834 215.14404297 280.50170898 C212.81074701 280.50549509 210.47745331 280.51099754 208.14416504 280.51808167 C201.82614367 280.5320137 195.5083953 280.52088274 189.19038916 280.50437045 C183.24322138 280.49190327 177.29608102 280.49613425 171.34890462 280.49950016 C159.56605407 280.50536922 147.78331062 280.49124353 136.00048828 280.46655273 C124.57987455 280.44262382 113.15940383 280.43555393 101.73876953 280.44604492 C89.28444006 280.45746506 76.83017662 280.45937152 64.37584794 280.44494683 C57.7894864 280.43741203 51.20318195 280.43350434 44.61681747 280.43945122 C38.42629031 280.44422694 32.23596078 280.43409432 26.04547119 280.41249657 C23.77512402 280.40693719 21.50475782 280.40645559 19.23440933 280.41144943 C16.13276942 280.41741574 13.03173105 280.40487086 9.93014526 280.38768005 C9.0342235 280.3936901 8.13830173 280.39970014 7.21523082 280.40589231 C0.41676982 280.3374875 -4.79543379 278.93764468 -10.6875 275.375 C-14.83771346 271.11261861 -17.78778568 266.41924323 -18.3125 260.4375 C-18.1578125 259.2309375 -18.1578125 259.2309375 -18 258 C-17.32904297 258.58007812 -17.32904297 258.58007812 -16.64453125 259.171875 C-2.80484579 271.09348039 -0.71150589 270.05368725 22 271 C22 181.9 22 92.8 22 1 C14.74 1 7.48 1 0 1 C0 0.67 0 0.34 0 0 Z " fill="#1F383E" transform="translate(141,50)"/>
	<path d="M0 0 C4.68356596 0.96618258 7.95552113 4.86010493 10.67919922 8.59545898 C12.1911732 10.98276005 13.59774805 13.40572725 14.97802734 15.87133789 C15.70505859 17.10207031 15.70505859 17.10207031 16.44677734 18.35766602 C19.15715659 23.10082969 20.94290507 26.93398579 21.10302734 32.43383789 C18.65903836 37.42807624 14.73675322 40.7877123 10.61474609 44.40649414 C8.8528499 46.33610442 8.8528499 46.33610442 9.15380859 48.85571289 C13.42865882 60.4664172 24.73841024 70.58122386 33.85302734 78.62133789 C34.66743286 79.36287109 34.66743286 79.36287109 35.49829102 80.11938477 C37.90308428 82.17356368 39.48200442 83.40573731 42.69287109 83.55102539 C45.90097562 82.06396235 47.6000005 80.03101412 49.91552734 77.37133789 C55.46458477 71.66654621 55.46458477 71.66654621 59.10302734 71.37133789 C63.58673848 71.99905745 66.86374374 74.7382955 70.37646484 77.42993164 C74.18689372 80.23043309 78.2848776 82.41346666 82.43896484 84.66040039 C85.3819733 86.61952919 87.16229344 88.48594587 89.10302734 91.43383789 C89.10302734 96.93654633 87.41355406 100.13910053 84.10302734 104.43383789 C83.43400391 105.31942383 83.43400391 105.31942383 82.75146484 106.22290039 C78.57904507 111.46631561 73.87217443 115.21354947 67.10302734 116.43383789 C47.0936557 117.51542555 31.20032069 111.90090708 16.10302734 98.43383789 C15.12462891 97.57532227 14.14623047 96.71680664 13.13818359 95.83227539 C-4.84562537 79.85172616 -23.11334847 57.72585159 -25.20947266 32.70336914 C-25.64141036 19.02984133 -25.64141036 19.02984133 -20.89697266 13.43383789 C-7.64460478 -0.2355797 -7.64460478 -0.2355797 0 0 Z " fill="#26474F" transform="translate(249.89697265625,125.566162109375)"/>
	<path d="M0 0 C6.12748788 3.79556942 10.62922634 8.21314037 12.5078125 15.41015625 C14.06653919 25.70063893 14.163309 35.51953523 8.8515625 44.7265625 C5.14866467 49.48313044 0.59942022 52.30540159 -5.0703125 54.1953125 C-7.6682247 54.34409161 -10.22174399 54.42634485 -12.8203125 54.4453125 C-13.51125 54.4659375 -14.2021875 54.4865625 -14.9140625 54.5078125 C-22.3507004 54.56372707 -27.95168899 51.97444094 -33.49609375 47.015625 C-36.25550762 43.82483874 -37.61473212 40.10816297 -39.0703125 36.1953125 C-39.4003125 35.5353125 -39.7303125 34.8753125 -40.0703125 34.1953125 C-40.7952032 24.02307572 -40.91619353 14.68578009 -34.5625 6.17578125 C-25.64669735 -3.67307051 -11.88665326 -6.22634218 0 0 Z " fill="#33241A" transform="translate(172.0703125,403.8046875)"/>
	<path d="M0 0 C1.75334549 -0.09100018 3.50806007 -0.15586724 5.26293945 -0.2097168 C6.23987259 -0.24864548 7.21680573 -0.28757416 8.2233429 -0.3276825 C11.5348822 0.06312322 12.58167036 0.92464296 14.79296875 3.35546875 C15.91127003 4.86842539 16.97901208 6.41974077 18 8 C18.53705566 8.82064941 19.07411133 9.64129883 19.62744141 10.48681641 C21.24729184 13.06512336 22.78908954 15.6762022 24.3125 18.3125 C25.34983813 20.07967504 26.38758094 21.8466126 27.42578125 23.61328125 C27.87348877 24.38454346 28.32119629 25.15580566 28.7824707 25.95043945 C29.80179971 27.66635424 30.89290468 29.33935702 32 31 C32.33 20.77 32.66 10.54 33 0 C37.29 0 41.58 0 46 0 C46.07404585 7.49306055 46.1285532 14.98590909 46.16479492 22.47924805 C46.17990005 25.02941598 46.20038533 27.57955786 46.22631836 30.12963867 C46.26262504 33.79091819 46.27970915 37.45185485 46.29296875 41.11328125 C46.30845261 42.2571077 46.32393646 43.40093414 46.33988953 44.579422 C46.34011612 45.64029526 46.34034271 46.70116852 46.34057617 47.79418945 C46.34723801 48.72906693 46.35389984 49.6639444 46.36076355 50.62715149 C46 53 46 53 44.72090149 54.79411316 C42.33303724 56.46736064 39.98499329 56.45952973 37.1328125 56.59375 C31.80847595 55.11151712 28.63020251 49.22084817 25.79296875 44.82421875 C25.42271072 44.25419632 25.0524527 43.68417389 24.67097473 43.09687805 C23.50400674 41.29743252 22.34564948 39.49263071 21.1875 37.6875 C20.3918418 36.45731619 19.5956229 35.22749483 18.79882812 33.99804688 C16.85939086 31.00285726 14.92762941 28.00280626 13 25 C12.97494385 25.90355225 12.9498877 26.80710449 12.92407227 27.73803711 C12.82912683 31.0796428 12.72988379 34.42106252 12.62768555 37.76245117 C12.5842837 39.2106424 12.54261256 40.65888654 12.50268555 42.10717773 C12.44510938 44.18489559 12.38137972 46.26234573 12.31640625 48.33984375 C12.26141968 50.21724243 12.26141968 50.21724243 12.20532227 52.13256836 C12 55 12 55 11 56 C9.33570949 56.09823937 7.66718069 56.12973631 6 56.125 C4.63875 56.12886719 4.63875 56.12886719 3.25 56.1328125 C1 56 1 56 0 55 C-0.0935919 53.28134591 -0.11744611 51.55884256 -0.11352539 49.83764648 C-0.11344986 48.73658066 -0.11337433 47.63551483 -0.11329651 46.50108337 C-0.10813522 45.3031868 -0.10297394 44.10529022 -0.09765625 42.87109375 C-0.0962413 41.65172623 -0.09482635 40.4323587 -0.09336853 39.17604065 C-0.08774967 35.2631693 -0.07519396 31.35035419 -0.0625 27.4375 C-0.05748743 24.79231853 -0.0529241 22.14713617 -0.04882812 19.50195312 C-0.03777411 13.00128274 -0.02101764 6.50064539 0 0 Z " fill="#322319" transform="translate(194,402)"/>
	<path d="M0 0 C3.96 0 7.92 0 12 0 C14.53614961 2.83105073 15.46574903 4.61534937 17 8 C18.1556321 10.11037664 19.34837718 12.19731128 20.54418945 14.28515625 C22.38995121 17.50839988 24.19250564 20.75517353 26 24 C29.81457151 19.62524666 32.44412983 14.82583908 35.1875 9.75 C36.07539643 8.11901429 36.96464672 6.48876463 37.85546875 4.859375 C38.24371826 4.14233398 38.63196777 3.42529297 39.03198242 2.68652344 C40 1 40 1 41 0 C44.96 0 48.92 0 53 0 C53 15.51 53 31.02 53 47 C49.37 47 45.74 47 42 47 C41.505 34.625 41.505 34.625 41 22 C38.12408417 27.50250808 38.12408417 27.50250808 35.25634766 33.00927734 C34.89589355 33.6945752 34.53543945 34.37987305 34.1640625 35.0859375 C33.79748535 35.7876709 33.4309082 36.4894043 33.05322266 37.21240234 C32 39 32 39 30 41 C26.625 41.4375 26.625 41.4375 23 41 C19.50104689 37.36383304 17.40845326 33.18357294 15.25 28.6875 C14.1775 26.480625 13.105 24.27375 12 22 C11.67 30.25 11.34 38.5 11 47 C7.37 47 3.74 47 0 47 C0 31.49 0 15.98 0 0 Z " fill="#312218" transform="translate(207,344)"/>
	<path d="M0 0 C1.09054687 0.02320313 2.18109375 0.04640625 3.3046875 0.0703125 C4.40039062 0.08835937 5.49609375 0.10640625 6.625 0.125 C7.46804688 0.14820313 8.31109375 0.17140625 9.1796875 0.1953125 C12.29089734 6.15020364 14.79803453 12.15499206 17.10546875 18.4609375 C17.45731735 19.4167572 17.80916595 20.3725769 18.17167664 21.35736084 C18.90777977 23.36328057 19.64128892 25.37015394 20.37231445 27.37792969 C21.49541014 30.45413947 22.63509114 33.52388251 23.77539062 36.59375 C24.49060617 38.54910534 25.20483408 40.50482228 25.91796875 42.4609375 C26.26056229 43.37764221 26.60315582 44.29434692 26.95613098 45.23883057 C27.26362778 46.09362 27.57112457 46.94840942 27.88793945 47.82910156 C28.29953056 48.95206635 28.29953056 48.95206635 28.71943665 50.09771729 C29.24242781 52.48125173 28.9497851 53.90503142 28.1796875 56.1953125 C26.5770093 56.30356093 24.97223002 56.38101895 23.3671875 56.4453125 C22.47386719 56.49171875 21.58054687 56.538125 20.66015625 56.5859375 C18.1796875 56.1953125 18.1796875 56.1953125 16.48046875 54.6171875 C15.1796875 52.1953125 15.1796875 52.1953125 13.1796875 45.1953125 C6.5796875 45.1953125 -0.0203125 45.1953125 -6.8203125 45.1953125 C-7.2946875 46.8246875 -7.7690625 48.4540625 -8.2578125 50.1328125 C-9.6953125 55.0703125 -9.6953125 55.0703125 -10.8203125 56.1953125 C-12.67318752 56.26757752 -14.52865128 56.2791247 -16.3828125 56.2578125 C-17.39472656 56.24878906 -18.40664063 56.23976563 -19.44921875 56.23046875 C-20.62291016 56.21306641 -20.62291016 56.21306641 -21.8203125 56.1953125 C-23.06382997 52.66533361 -22.5714289 50.66086664 -21.31323242 47.18310547 C-20.95923874 46.18882538 -20.60524506 45.19454529 -20.24052429 44.1701355 C-19.84790909 43.10336578 -19.45529388 42.03659607 -19.05078125 40.9375 C-18.65458084 39.83810089 -18.25838043 38.73870178 -17.85017395 37.60598755 C-17.0102973 35.28250585 -16.16516038 32.9609199 -15.31518555 30.64111328 C-14.01194349 27.0815954 -12.72637323 23.51607107 -11.44335938 19.94921875 C-10.62603661 17.69493639 -9.80771107 15.4410173 -8.98828125 13.1875 C-8.60173874 12.11668182 -8.21519623 11.04586365 -7.81694031 9.94259644 C-7.45349014 8.95462067 -7.09003998 7.9666449 -6.71557617 6.94873047 C-6.39723312 6.07699188 -6.07889008 5.2052533 -5.75090027 4.30709839 C-4.33723971 1.09907384 -3.55016792 0.2458565 0 0 Z " fill="#33241A" transform="translate(309.8203125,401.8046875)"/>
	<path d="M0 0 C2.33483527 2.40558785 2.78774783 3.82797393 3.0625 7.125 C1.0825 8.775 -0.8975 10.425 -2.9375 12.125 C-5.43111571 10.92118552 -7.61893083 9.67071278 -9.9375 8.125 C-18.22286834 7.00122295 -18.22286834 7.00122295 -25.93359375 9.36328125 C-30.18560551 14.44803122 -30.2686921 19.72830327 -30.23046875 26.03515625 C-29.72986586 31.31484807 -27.71955184 35.34294816 -23.9375 39.125 C-19.70698547 40.5083961 -15.33433864 40.70614737 -10.9375 40.125 C-7.64501892 38.29182624 -7.64501892 38.29182624 -4.9375 36.125 C-2.875 35.125 -2.875 35.125 -0.9375 35.125 C1.8125 36.75 1.8125 36.75 4.0625 39.125 C4.4765625 41.5390625 4.4765625 41.5390625 4.0625 44.125 C2.1640625 46.109375 2.1640625 46.109375 -0.3125 47.875 C-1.12460937 48.46796875 -1.93671875 49.0609375 -2.7734375 49.671875 C-9.21409512 53.99664871 -18.45831991 52.98040419 -25.9375 52.125 C-32.89362439 49.94757516 -37.18639201 45.52837353 -40.8203125 39.328125 C-44.84953992 31.38237582 -45.35396594 21.84445976 -43.21484375 13.20703125 C-40.14347183 4.98769183 -35.82618812 -0.00237129 -27.9375 -3.875 C-18.38095998 -6.96501615 -8.29286662 -5.29331912 0 0 Z " fill="#33241A" transform="translate(384.9375,405.875)"/>
	<path d="M0 0 C0.67740234 -0.01160156 1.35480469 -0.02320313 2.05273438 -0.03515625 C10.0837201 0.01104309 15.25745459 3.13630048 21.0625 8.375 C20.76350785 11.96290575 20.29263399 13.15666776 17.625 15.6875 C15.0625 17.375 15.0625 17.375 13.0625 17.375 C13.0625 16.715 13.0625 16.055 13.0625 15.375 C12.27875 15.065625 11.495 14.75625 10.6875 14.4375 C8.0625 13.375 8.0625 13.375 6.0625 12.375 C1.85023177 11.94467004 -1.84809104 11.94870954 -5.8125 13.5 C-9.47086638 16.72797034 -10.79594226 20.19280162 -11.37109375 24.99609375 C-11.53068536 34.95260798 -11.53068536 34.95260798 -6.9375 43.375 C-2.52694212 46.13982733 2.01597412 45.923002 7.0625 45.375 C10.08536884 43.98951845 11.73121425 42.70628575 14.0625 40.375 C16.85143401 40.56092893 18.13525561 41.4300583 20.375 43.125 C22.0625 45.375 22.0625 45.375 22.3125 47.75 C20.36192316 51.84621136 16.92559487 54.11018 13.0625 56.375 C6.02637088 58.45742552 -3.57963352 58.78956219 -10.62109375 56.50390625 C-12.66335277 55.28969767 -14.24656264 54.04069949 -15.9375 52.375 C-16.49695313 51.84390625 -17.05640625 51.3128125 -17.6328125 50.765625 C-24.42222725 43.61542009 -25.4323993 36.28106163 -25.35717773 26.73925781 C-25.04681129 17.64981221 -22.50954828 11.20870533 -15.9140625 4.84765625 C-10.76715582 1.01290562 -6.33987226 -0.10796377 0 0 Z " fill="#332319" transform="translate(104.9375,400.625)"/>
	<path d="M0 0 C1.60138494 -0.01654759 3.20269637 -0.04382244 4.80371094 -0.08203125 C7.11684327 -0.13692965 9.42824647 -0.15869153 11.74194336 -0.17333984 C12.45357132 -0.19600922 13.16519928 -0.21867859 13.89839172 -0.24203491 C17.73752129 -0.22579792 19.46293526 0.24727945 22.54467773 2.60351562 C25.62278766 6.72206185 25.37268588 9.866074 25.28491211 14.85009766 C25.31262695 15.69185547 25.3403418 16.53361328 25.36889648 17.40087891 C25.36567383 18.21943359 25.36245117 19.03798828 25.35913086 19.88134766 C25.35872803 20.61933594 25.3583252 21.35732422 25.35791016 22.11767578 C24.15974483 25.63485836 21.7437003 27.58262725 18.59741211 29.35009766 C14.96630859 29.99707031 14.96630859 29.99707031 10.96850586 30.01416016 C9.90032372 30.0213356 9.90032372 30.0213356 8.81056213 30.02865601 C7.31378962 30.03204058 5.81694172 30.02293919 4.3203125 30.00195312 C2.03664854 29.97511806 -0.2421204 30.00176101 -2.52563477 30.03369141 C-3.985932 30.03038782 -5.4462262 30.02398261 -6.90649414 30.01416016 C-8.22464111 30.00852051 -9.54278809 30.00288086 -10.90087891 29.99707031 C-15.20601993 29.20165626 -16.64940565 27.66470181 -19.40258789 24.35009766 C-19.73258789 24.02009766 -20.06258789 23.69009766 -20.40258789 23.35009766 C-20.58359142 20.58460106 -20.6807761 17.86791565 -20.71508789 15.10009766 C-20.7440918 14.33568359 -20.7730957 13.57126953 -20.80297852 12.78369141 C-20.84791236 8.78112307 -20.70817434 6.83147507 -18.50805664 3.36572266 C-13.63722561 -1.29726215 -6.38717039 0.0483827 0 0 Z " fill="#986747" transform="translate(119.402587890625,165.64990234375)"/>
	<path d="M0 0 C1.82821289 -0.04350586 1.82821289 -0.04350586 3.69335938 -0.08789062 C4.86833984 -0.09626953 6.04332031 -0.10464844 7.25390625 -0.11328125 C8.32068604 -0.12786377 9.38746582 -0.14244629 10.48657227 -0.1574707 C14.15054243 0.42606058 15.79439567 1.76369693 18.4375 4.3125 C19.90093456 7.23936912 19.6079426 9.86703613 19.625 13.125 C19.63917969 14.34832031 19.65335938 15.57164063 19.66796875 16.83203125 C19.4390334 20.289343 19.19602571 22.34467294 17.4375 25.3125 C13.02273528 28.83308366 10.080234 29.81731153 4.46484375 29.80859375 C3.15322266 29.80923828 1.84160156 29.80988281 0.49023438 29.81054688 C-0.523573 29.79495728 -0.523573 29.79495728 -1.55786133 29.77905273 C-3.62337295 29.75002287 -5.68632371 29.75847447 -7.75195312 29.77148438 C-18.95335316 29.69985712 -18.95335316 29.69985712 -23.5625 26.3125 C-26.05882726 22.92624338 -25.86185446 19.48079105 -25.875 15.375 C-25.89175781 14.16972656 -25.90851563 12.96445313 -25.92578125 11.72265625 C-25.53455124 8.05014225 -24.78713881 6.22484917 -22.5625 3.3125 C-16.06812946 -1.01708036 -7.5451512 0.06004099 0 0 Z " fill="#976646" transform="translate(124.5625,96.6875)"/>
	<path d="M0 0 C0.73766602 0.00725098 1.47533203 0.01450195 2.23535156 0.02197266 C4.26163125 0.04955699 6.28723866 0.11759453 8.3125 0.1875 C9.48425781 0.22230469 10.65601563 0.25710937 11.86328125 0.29296875 C16.06876814 1.2409054 17.51992424 2.47856646 20 6 C20.70112875 9.02698502 20.700374 11.90464105 20.625 15 C20.64433594 15.7940625 20.66367188 16.588125 20.68359375 17.40625 C20.67714844 18.1796875 20.67070312 18.953125 20.6640625 19.75 C20.65560303 20.79414063 20.65560303 20.79414063 20.64697266 21.859375 C19.60252042 25.31513244 17.82674453 26.81392795 15 29 C12.20715648 29.50061116 10.03372951 29.70418481 7.25 29.6640625 C6.14640137 29.67123795 6.14640137 29.67123795 5.02050781 29.67855835 C3.47068127 29.6819488 1.92078239 29.67280592 0.37109375 29.65185547 C-1.99381786 29.62507002 -4.35398502 29.65162417 -6.71875 29.68359375 C-8.22917708 29.68028949 -9.73960123 29.6738829 -11.25 29.6640625 C-12.3033252 29.67924423 -12.3033252 29.67924423 -13.37792969 29.69473267 C-17.18219966 29.6044597 -18.90353926 29.07454257 -21.94506836 26.72412109 C-23.97437678 24.03396743 -24.63231959 23.02680249 -24.62890625 19.75 C-24.63083984 18.9765625 -24.63277344 18.203125 -24.63476562 17.40625 C-24.61091797 16.6121875 -24.58707031 15.818125 -24.5625 15 C-24.57345703 14.2059375 -24.58441406 13.411875 -24.59570312 12.59375 C-24.54531771 8.5629169 -24.30098126 6.47270676 -22.08984375 3 C-16.69817855 -2.15987398 -7.07699315 -0.12123023 0 0 Z " fill="#996848" transform="translate(123,236)"/>
	<path d="M0 0 C14.52 0 29.04 0 44 0 C44 3.3 44 6.6 44 10 C39.89441282 12.05279359 38.19793315 12.2216942 33.75 12.125 C32.67234375 12.10695313 31.5946875 12.08890625 30.484375 12.0703125 C29.66453125 12.04710937 28.8446875 12.02390625 28 12 C28.00785522 13.94604126 28.00785522 13.94604126 28.01586914 15.93139648 C28.03391469 20.72647415 28.04543037 25.5215488 28.05493164 30.31665039 C28.05997288 32.39543156 28.06680574 34.47420916 28.07543945 36.55297852 C28.08751422 39.53402586 28.09323024 42.51502649 28.09765625 45.49609375 C28.10281754 46.43150497 28.10797882 47.3669162 28.11329651 48.33067322 C28.11340981 49.62189842 28.11340981 49.62189842 28.11352539 50.93920898 C28.115746 51.70087875 28.11796661 52.46254852 28.12025452 53.24729919 C28 55 28 55 27 56 C25.33570949 56.09823937 23.66718069 56.12973631 22 56.125 C20.63875 56.12886719 20.63875 56.12886719 19.25 56.1328125 C17 56 17 56 16 55 C15.90731001 53.64905018 15.88252674 52.29332909 15.88647461 50.93920898 C15.88655014 50.07839218 15.88662567 49.21757538 15.88670349 48.33067322 C15.89186478 47.39526199 15.89702606 46.45985077 15.90234375 45.49609375 C15.9037587 44.54307877 15.90517365 43.59006378 15.90663147 42.60816956 C15.91224848 39.55124835 15.92480384 36.49439923 15.9375 33.4375 C15.94251281 31.37044376 15.94707609 29.30338638 15.95117188 27.23632812 C15.96222344 22.15752412 15.97949945 17.0787743 16 12 C14.39318359 12.01740234 14.39318359 12.01740234 12.75390625 12.03515625 C11.35677257 12.04453299 9.95963701 12.05363331 8.5625 12.0625 C7.85544922 12.07087891 7.14839844 12.07925781 6.41992188 12.08789062 C4.61306441 12.09653588 2.80612397 12.05220011 1 12 C0.67 11.67 0.34 11.34 0 11 C0 7.37 0 3.74 0 0 Z " fill="#322319" transform="translate(393,402)"/>
	<path d="M0 0 C6.1055471 -0.02464513 12.21106551 -0.04283371 18.31665039 -0.05493164 C20.39543156 -0.05997288 22.47420916 -0.06680574 24.55297852 -0.07543945 C27.53402586 -0.08751422 30.51502649 -0.09323024 33.49609375 -0.09765625 C34.89921059 -0.10539818 34.89921059 -0.10539818 36.33067322 -0.11329651 C37.19149002 -0.11337204 38.05230682 -0.11344757 38.93920898 -0.11352539 C40.08171364 -0.11685631 40.08171364 -0.11685631 41.24729919 -0.12025452 C43 0 43 0 44 1 C44.07179964 2.51928038 44.08392007 4.04167482 44.0625 5.5625 C44.05347656 6.38878906 44.04445313 7.21507812 44.03515625 8.06640625 C44.02355469 8.70449219 44.01195312 9.34257812 44 10 C40.41398088 11.37923812 37.08103044 12.18082705 33.27734375 12.56640625 C32.47417725 12.64963135 31.67101074 12.73285645 30.84350586 12.81860352 C29.93097046 12.90839478 29.93097046 12.90839478 29 13 C28.97494385 14.26706787 28.9498877 15.53413574 28.92407227 16.83959961 C28.83018004 21.52297779 28.72991565 26.2062013 28.62768555 30.8894043 C28.58426759 32.91964104 28.54259774 34.94991592 28.50268555 36.98022461 C28.44514854 39.89188151 28.38140722 42.80334514 28.31640625 45.71484375 C28.29133751 47.08514992 28.29133751 47.08514992 28.26576233 48.48313904 C28.11387171 54.88612829 28.11387171 54.88612829 27 56 C25.00390625 56.16796875 25.00390625 56.16796875 22.5625 56.1875 C21.75941406 56.20167969 20.95632813 56.21585937 20.12890625 56.23046875 C18 56 18 56 16 54 C15.75949097 52.12704468 15.75949097 52.12704468 15.77294922 49.82568359 C15.77310028 48.96494232 15.77325134 48.10420105 15.77340698 47.21737671 C15.78372955 46.28712677 15.79405212 45.35687683 15.8046875 44.3984375 C15.8075174 43.44683746 15.81034729 42.49523743 15.81326294 41.51480103 C15.82448011 38.46807408 15.84958737 35.42163846 15.875 32.375 C15.88502782 30.31250424 15.89415401 28.25000388 15.90234375 26.1875 C15.92442446 21.12488733 15.9589647 16.0624931 16 11 C10.72 11 5.44 11 0 11 C0 7.37 0 3.74 0 0 Z " fill="#302016" transform="translate(246,402)"/>
	<path d="M0 0 C2.6875 -0.3125 2.6875 -0.3125 6 0 C9.10164769 2.55024365 10.72566416 4.17699247 12 8 C12.27775109 11.26596968 12.2773696 14.53600475 12.3125 17.8125 C12.34150391 18.70259766 12.37050781 19.59269531 12.40039062 20.50976562 C12.4549028 26.16645216 11.9367945 29.60816445 8 34 C5.0563031 35.81409825 2.88786287 36.24172788 -0.546875 36.1953125 C-1.30838867 36.19031738 -2.06990234 36.18532227 -2.85449219 36.18017578 C-3.81000977 36.16196777 -4.76552734 36.14375977 -5.75 36.125 C-10.32875 36.063125 -10.32875 36.063125 -15 36 C-15 45.57 -15 55.14 -15 65 C-12.69 64.9175 -10.38 64.835 -8 64.75 C-1.6197666 64.64956722 2.65123 65.43415333 8 69 C12.36958544 73.36958544 11.21977318 80.07900687 11.25 85.875 C11.270625 86.85597656 11.29125 87.83695312 11.3125 88.84765625 C11.34173618 94.26365891 11.28302118 98.44659236 8 103 C3.62048001 106.93414507 -1.25558584 106.34911048 -6.8125 106.1875 C-8.13797852 106.16719727 -8.13797852 106.16719727 -9.49023438 106.14648438 C-11.66042023 106.11129217 -13.83029033 106.05748985 -16 106 C-16 103.69 -16 101.38 -16 99 C-14.96359375 98.97421875 -13.9271875 98.9484375 -12.859375 98.921875 C-11.48954199 98.86558049 -10.11975195 98.80823345 -8.75 98.75 C-8.06808594 98.73582031 -7.38617188 98.72164063 -6.68359375 98.70703125 C-3.51261445 98.55310022 -1.27628706 98.16718007 1.453125 96.515625 C3.772965 92.74295591 3.58328171 89.34452912 3.5 85 C3.51546875 84.19304687 3.5309375 83.38609375 3.546875 82.5546875 C3.54171875 81.77351563 3.5365625 80.99234375 3.53125 80.1875 C3.52673828 79.47980469 3.52222656 78.77210938 3.51757812 78.04296875 C3.01683086 75.33443768 3.01683086 75.33443768 -1 72 C-5.95 71.67 -10.9 71.34 -16 71 C-16 57.14 -16 43.28 -16 29 C-11.05 28.67 -6.1 28.34 -1 28 C3.98310356 24.79259646 3.98310356 24.79259646 4.63110352 21.88110352 C4.63037842 21.13787842 4.62965332 20.39465332 4.62890625 19.62890625 C4.63083984 18.80712891 4.63277344 17.98535156 4.63476562 17.13867188 C4.61091797 16.28853516 4.58707031 15.43839844 4.5625 14.5625 C4.57345703 13.71623047 4.58441406 12.86996094 4.59570312 11.99804688 C4.54557828 7.73075164 4.36049053 5.54869288 1.96484375 1.90234375 C0.99224609 0.96068359 0.99224609 0.96068359 0 0 Z " fill="#21383D" transform="translate(139,166)"/>
	<path d="M0 0 C3.54187908 -0.71853695 6.48109259 -0.91101159 10 0 C13.35361412 3.25843642 15.65038783 6.97907016 18 11 C18.56847656 11.90363281 19.13695312 12.80726563 19.72265625 13.73828125 C21 16 21 16 21 18 C21.66 18 22.32 18 23 18 C23.25910156 17.31550781 23.51820313 16.63101562 23.78515625 15.92578125 C26.19593342 10.11976164 28.79090751 4.6872454 33 0 C36.88373175 -1.10234699 40.08080722 -0.84291462 44 0 C43.66183039 6.28175671 40.41767187 10.5943413 37.0625 15.6875 C36.51142578 16.54150391 35.96035156 17.39550781 35.39257812 18.27539062 C33.2861332 21.53359766 31.15213435 24.77179847 29 28 C28.6523888 30.00954865 28.6523888 30.00954865 28.62109375 32.1953125 C28.58693359 32.99324219 28.55277344 33.79117188 28.51757812 34.61328125 C28.49115234 35.44214844 28.46472656 36.27101563 28.4375 37.125 C28.1205036 45.8794964 28.1205036 45.8794964 27 47 C25.33570949 47.09823937 23.66718069 47.12973631 22 47.125 C20.63875 47.12886719 20.63875 47.12886719 19.25 47.1328125 C17 47 17 47 16 46 C16.03480469 44.88882813 16.06960938 43.77765625 16.10546875 42.6328125 C16.47943065 29.41400738 11.94843419 21.45042275 4.35644531 10.88818359 C0 4.82397408 0 4.82397408 0 0 Z " fill="#35261C" transform="translate(267,344)"/>
	<path d="M0 0 C4.61786503 2.44475208 8.95423917 5.6814523 10.5859375 10.859375 C11.86525988 17.4732303 11.62452583 23.42295585 8.18359375 29.3046875 C6.30262469 31.99888081 4.94842315 33.46169227 2 35 C-3.01022186 35.80566382 -6.83210686 35.55209494 -11.4375 33.375 C-15.27653316 29.8168717 -16.81615407 26.55026834 -17.43359375 21.34375 C-17.43488281 20.0753125 -17.43617188 18.806875 -17.4375 17.5 C-17.45683594 16.2315625 -17.47617188 14.963125 -17.49609375 13.65625 C-16.75117356 8.16612955 -14.35296504 5.14250381 -10.1875 1.625 C-6.35990051 -0.32632523 -4.24556929 -0.6065099 0 0 Z " fill="#F3E6D2" transform="translate(162,412)"/>
	<path d="M0 0 C0.33 0 0.66 0 1 0 C1 7.92 1 15.84 1 24 C3.31 23.9175 5.62 23.835 8 23.75 C14.38614489 23.66814399 18.72949473 24.24983279 24 28 C28.03101725 32.71694793 27.48005381 38.05346808 27.4375 43.9375 C27.4674707 45.40219727 27.4674707 45.40219727 27.49804688 46.89648438 C27.49396551 52.91649328 27.01774593 56.42935325 23 61 C15.86114766 66.17566794 10.28957724 65 1 65 C1 75.56 1 86.12 1 97 C0.67 97 0.34 97 0 97 C0 83.8 0 70.6 0 57 C6.435 56.505 6.435 56.505 13 56 C17.27499221 54.07847141 17.27499221 54.07847141 19.6171875 50.296875 C20.13229102 47.20625391 20.2880768 44.19507846 20.375 41.0625 C20.44847656 39.25458984 20.44847656 39.25458984 20.5234375 37.41015625 C20.2416366 33.88779614 20.2416366 33.88779614 17.96484375 31.109375 C14.35778146 28.54308563 11.46428362 28.22627368 7.1875 28.1875 C4.815625 28.125625 2.44375 28.06375 0 28 C0 18.76 0 9.52 0 0 Z " fill="#20383F" transform="translate(123,69)"/>
	<path d="M0 0 C4.51958772 3.13860258 6.78554814 6.03962784 9 11 C8.25 13.4375 8.25 13.4375 7 15 C6.67 15 6.34 15 6 15 C5.67 85.29 5.34 155.58 5 228 C4.67 228 4.34 228 4 228 C3.99668985 226.87078786 3.99337971 225.74157572 3.98996925 224.57814503 C3.90902822 197.12063406 3.81672901 169.66317926 3.71247292 142.20574665 C3.6623196 128.92762215 3.61587697 115.64950392 3.578125 102.37133789 C3.54521671 90.80008902 3.5053919 79.22888834 3.45720994 67.65769261 C3.43193345 61.52904824 3.41015551 55.40043588 3.39665604 49.27175331 C3.38384621 43.50573084 3.36180331 37.73981809 3.33261681 31.97385597 C3.32353262 29.85545537 3.31784884 27.73703709 3.31578636 25.61861801 C3.31246981 22.73006124 3.2970086 19.8418167 3.2784729 16.95332336 C3.28040763 16.11187895 3.28234237 15.27043453 3.28433573 14.4034918 C3.24319914 10.12588605 2.92136766 6.91209385 1 3 C0.67 2.01 0.34 1.02 0 0 Z " fill="#274147" transform="translate(389,56)"/>
	<path d="M0 0 C0.66 0 1.32 0 2 0 C2.83919398 2.26882087 3.67151724 4.53977027 4.5 6.8125 C4.73847656 7.45509766 4.97695313 8.09769531 5.22265625 8.75976562 C6.27068746 11.64933739 7 13.90076061 7 17 C3.04 17 -0.92 17 -5 17 C-1.85714286 5.28571429 -1.85714286 5.28571429 0 0 Z " fill="#EEE3D0" transform="translate(312,419)"/>
	<path d="M0 0 C2.4375 1.5625 2.4375 1.5625 5 4 C5.8125 7.75 5.8125 7.75 6 11 C5.34 11 4.68 11 4 11 C3.52014033 9.72942818 3.0411407 8.45853152 2.5625 7.1875 C2.16224609 6.12595703 2.16224609 6.12595703 1.75390625 5.04296875 C1.13774814 3.37327604 0.56280765 1.68842296 0 0 Z " fill="#1E343B" transform="translate(389,56)"/>
</svg>
